#!OML:ASF G:\JayActor3\Patient Classification 1\Patient 1\Session 5\male.ASF
:FULLY-SPECIFIED
:DEGREES
1119
root -23.6031 17.1498 -4.42917 -454.414 86.7371 -453.022
lowerback 0.899242 -0.697658 2.47144
upperback 1.68732 -0.914448 -0.110465
thorax 1.18448 -0.42104 -1.49889
lowerneck -7.8367 0.0273935 2.15988
upperneck 15.0638 -0.357715 1.61446
head 5.84591 0.131836 0.132552
rclavicle -1.1045e-014 7.55382e-015
rhumerus -33.0989 -5.83775 -86.0227
rradius 26.7729
rwrist 1.94094
rhand -18.3851 -7.51034
rfingers 7.12502
rthumb 7.8987 -37.3428
lclavicle -1.1045e-014 7.55382e-015
lhumerus -31.3643 7.62252 81.6289
lradius 23.0825
lwrist 14.5531
lhand -18.5942 14.5992
lfingers 7.12502
lthumb 7.6968 44.4391
rfemur -10.8394 3.57814 29.4316
rtibia 27.8083
rfoot -18.8928 -10.7408
rtoes 17.5904
lfemur -3.22755 6.22698 -13.9365
ltibia 53.3282
lfoot 1.53928 -8.94265
ltoes -11.3483
1120
root -23.6705 17.1473 -4.43695 -453.65 86.797 -452.304
lowerback 0.818474 -0.685126 2.40843
upperback 1.66899 -0.900244 -0.117609
thorax 1.21236 -0.414703 -1.47183
lowerneck -7.84644 0.0305796 2.15857
upperneck 15.0781 -0.352841 1.60933
head 5.85209 0.134064 0.131543
rclavicle -3.47873e-015 -4.37326e-015
rhumerus -33.1012 -5.819 -86.0456
rradius 26.7901
rwrist 1.91223
rhand -18.3715 -7.50112
rfingers 7.12502
rthumb 7.91178 -37.3331
lclavicle -3.47873e-015 -4.37326e-015
lhumerus -31.3585 7.56854 81.6637
lradius 23.2066
lwrist 14.6422
lhand -18.5719 14.6159
lfingers 7.12502
lthumb 7.71839 44.4551
rfemur -11.2612 3.60475 29.3008
rtibia 28.0297
rfoot -18.8811 -10.6149
rtoes 17.3874
lfemur -2.12095 6.17865 -14.0999
ltibia 51.8542
lfoot 3.11337 -9.13757
ltoes -9.12139
1121
root -23.7385 17.1438 -4.44515 -452.81 86.8545 -451.509
lowerback 0.73813 -0.67169 2.34869
upperback 1.6525 -0.884688 -0.126196
thorax 1.24185 -0.407598 -1.44806
lowerneck -7.85476 0.0331748 2.15782
upperneck 15.0875 -0.349098 1.60611
head 5.85645 0.135798 0.13095
rclavicle -6.31141e-015 1.98785e-015
rhumerus -33.1031 -5.78436 -86.0788
rradius 26.8257
rwrist 1.87165
rhand -18.3529 -7.5026
rfingers 7.12502
rthumb 7.92975 -37.3339
lclavicle -6.31141e-015 1.98785e-015
lhumerus -31.3504 7.5027 81.7032
lradius 23.353
lwrist 14.7298
lhand -18.5385 14.6596
lfingers 7.12502
lthumb 7.75057 44.4976
rfemur -11.6948 3.63416 29.172
rtibia 28.2706
rfoot -18.9069 -10.5084
rtoes 17.0711
lfemur -1.00604 6.12429 -14.275
ltibia 50.2707
lfoot 4.49362 -9.26947
ltoes -7.09854
1122
root -23.8073 17.1395 -4.45361 -451.927 86.9121 -450.669
lowerback 0.664454 -0.658478 2.28709
upperback 1.63567 -0.869115 -0.135273
thorax 1.26727 -0.400555 -1.42362
lowerneck -7.86763 0.0345411 2.15451
upperneck 15.0984 -0.347177 1.60477
head 5.86209 0.13667 0.131242
rclavicle -5.55355e-015 4.37326e-015
rhumerus -33.1054 -5.73494 -86.1193
rradius 26.878
rwrist 1.82145
rhand -18.335 -7.51216
rfingers 7.12502
rthumb 7.94701 -37.3428
lclavicle -5.55355e-015 4.37326e-015
lhumerus -31.3421 7.4257 81.7494
lradius 23.5188
lwrist 14.8248
lhand -18.505 14.7192
lfingers 7.12502
lthumb 7.78289 44.556
rfemur -12.14 3.66007 29.0429
rtibia 28.5283
rfoot -18.9566 -10.43
rtoes 16.6252
lfemur 0.112834 6.06003 -14.4643
ltibia 48.5787
lfoot 5.575 -9.38178
ltoes -5.49243
1123
root -23.8772 17.1343 -4.46215 -451.175 86.9748 -449.96
lowerback 0.599444 -0.648804 2.21555
upperback 1.61846 -0.857879 -0.145816
thorax 1.28733 -0.395856 -1.39499
lowerneck -7.87522 0.0367724 2.15288
upperneck 15.1016 -0.344043 1.60299
head 5.86441 0.13801 0.131186
rclavicle -8.85834e-015 5.56597e-015
rhumerus -33.1069 -5.6746 -86.1653
rradius 26.9451
rwrist 1.76688
rhand -18.3182 -7.52961
rfingers 7.12502
rthumb 7.96321 -37.3596
lclavicle -8.85834e-015 5.56597e-015
lhumerus -31.3312 7.34718 81.7978
lradius 23.6967
lwrist 14.922
lhand -18.4631 14.7784
lfingers 7.12502
lthumb 7.8234 44.6136
rfemur -12.599 3.67561 28.9083
rtibia 28.8044
rfoot -19.0247 -10.3917
rtoes 16.0358
lfemur 1.23251 5.97543 -14.673
ltibia 46.779
lfoot 6.19529 -9.45781
ltoes -4.98113
1124
root -23.9482 17.1282 -4.47089 -450.544 87.0352 -449.369
lowerback 0.543937 -0.642379 2.14289
upperback 1.60016 -0.850611 -0.155569
thorax 1.3008 -0.393236 -1.36481
lowerneck -7.88256 0.0396138 2.14874
upperneck 15.1031 -0.340208 1.60435
head 5.86617 0.139743 0.132584
rclavicle 1.86361e-015 5.1684e-015
rhumerus -33.1075 -5.60776 -86.2144
rradius 27.0245
rwrist 1.70898
rhand -18.3126 -7.54198
rfingers 7.12502
rthumb 7.96867 -37.3718
lclavicle 1.86361e-015 5.1684e-015
lhumerus -31.3285 7.24352 81.8566
lradius 23.9011
lwrist 15.0406
lhand -18.4164 14.8369
lfingers 7.12502
lthumb 7.86842 44.6705
rfemur -13.0716 3.67985 28.7761
rtibia 29.0974
rfoot -19.0987 -10.3875
rtoes 15.3473
lfemur 2.35166 5.87022 -14.8919
ltibia 44.8754
lfoot 6.35441 -9.5417
ltoes -5.34738
1125
root -24.0211 17.1212 -4.47955 -450.243 87.0963 -449.108
lowerback 0.503742 -0.64258 2.06184
upperback 1.57837 -0.851681 -0.164126
thorax 1.3019 -0.395053 -1.32851
lowerneck -7.87811 0.0433307 2.14959
upperneck 15.1002 -0.334804 1.6023
head 5.8645 0.142182 0.132181
rclavicle 4.58447e-015 5.96354e-015
rhumerus -33.111 -5.53731 -86.2647
rradius 27.1184
rwrist 1.64562
rhand -18.3131 -7.5467
rfingers 7.12502
rthumb 7.9682 -37.3765
lclavicle 4.58447e-015 5.96354e-015
lhumerus -31.331 7.12726 81.9219
lradius 24.1191
lwrist 15.1712
lhand -18.3836 14.889
lfingers 7.12502
lthumb 7.90012 44.7214
rfemur -13.5609 3.67585 28.6435
rtibia 29.4091
rfoot -19.1839 -10.4235
rtoes 14.5766
lfemur 3.46172 5.73732 -15.1215
ltibia 42.8736
lfoot 6.08412 -9.67391
ltoes -6.3158
1126
root -24.0952 17.1138 -4.48838 -450.12 87.1547 -449.025
lowerback 0.471398 -0.648669 1.97807
upperback 1.55722 -0.860361 -0.16917
thorax 1.29907 -0.400736 -1.28703
lowerneck -7.87985 0.0488834 2.14818
upperneck 15.0998 -0.326419 1.59704
head 5.86468 0.145729 0.131368
rclavicle 1.963e-015 1.98785e-015
rhumerus -33.1051 -5.46595 -86.3128
rradius 27.2179
rwrist 1.58618
rhand -18.3181 -7.54135
rfingers 7.12502
rthumb 7.96329 -37.3713
lclavicle 1.963e-015 1.98785e-015
lhumerus -31.3288 7.01437 81.9922
lradius 24.3418
lwrist 15.3019
lhand -18.3572 14.9034
lfingers 7.12502
lthumb 7.92555 44.7349
rfemur -14.064 3.67391 28.5131
rtibia 29.7352
rfoot -19.2817 -10.4913
rtoes 13.7579
lfemur 4.56167 5.58196 -15.3582
ltibia 40.7851
lfoot 5.43225 -9.85346
ltoes -7.613
1127
root -24.1706 17.1064 -4.49749 -450.067 87.2111 -449.013
lowerback 0.445577 -0.656326 1.89578
upperback 1.53552 -0.870932 -0.174032
thorax 1.29197 -0.407372 -1.24613
lowerneck -7.87503 0.0523682 2.14658
upperneck 15.0943 -0.320512 1.59155
head 5.86211 0.147929 0.130315
rclavicle -3.01904e-015 -2.78299e-015
rhumerus -33.097 -5.39412 -86.3615
rradius 27.3302
rwrist 1.51674
rhand -18.3287 -7.53217
rfingers 7.12502
rthumb 7.95308 -37.3626
lclavicle -3.01904e-015 -2.78299e-015
lhumerus -31.3244 6.89076 82.0693
lradius 24.5726
lwrist 15.4394
lhand -18.3381 14.873
lfingers 7.12502
lthumb 7.94402 44.7037
rfemur -14.5771 3.68524 28.3821
rtibia 30.0723
rfoot -19.3991 -10.5828
rtoes 12.9479
lfemur 5.65144 5.40983 -15.6023
ltibia 38.6271
lfoot 4.53923 -10.0641
ltoes -8.70654
